<?xml version="1.0" standalone="no"?>
<!DOCTYPE svg PUBLIC "-//W3C//DTD SVG 20010904//EN"
 "http://www.w3.org/TR/2001/REC-SVG-20010904/DTD/svg10.dtd">
<svg version="1.0" xmlns="http://www.w3.org/2000/svg"
 width="992.000000pt" height="992.000000pt" viewBox="0 0 992.000000 992.000000"
 preserveAspectRatio="xMidYMid meet">
<metadata>
Created by potrace 1.14, written by Peter Selinger 2001-2017
</metadata>
<g transform="translate(0.000000,992.000000) scale(0.100000,-0.100000)"
fill="#000000" stroke="none">
<path d="M4759 9615 c-2 -1 -47 -6 -99 -9 -52 -4 -108 -9 -125 -11 -16 -2 -55
-6 -85 -10 -30 -3 -62 -8 -70 -10 -8 -3 -31 -7 -50 -9 -33 -5 -164 -29 -220
-41 -14 -3 -61 -14 -105 -25 -44 -11 -87 -22 -96 -24 -263 -66 -675 -234 -944
-385 -38 -22 -89 -50 -112 -62 -24 -12 -43 -26 -43 -31 0 -4 -5 -8 -11 -8 -6
0 -63 -35 -126 -77 -63 -43 -122 -82 -131 -88 -10 -5 -19 -12 -22 -16 -3 -3
-23 -18 -45 -34 -63 -46 -200 -158 -203 -167 -2 -4 -7 -8 -12 -8 -18 0 -440
-409 -440 -427 0 -5 -12 -20 -28 -33 -15 -14 -43 -45 -62 -70 -35 -45 -75 -92
-98 -116 -6 -7 -12 -16 -12 -19 0 -6 -23 -37 -72 -95 -33 -38 -189 -276 -250
-380 -37 -63 -71 -119 -75 -125 -30 -39 -253 -514 -255 -545 0 -3 -9 -23 -21
-45 -11 -22 -20 -42 -20 -45 1 -7 -2 -14 -32 -100 -15 -41 -28 -79 -29 -85 -1
-5 -16 -55 -34 -110 -27 -89 -51 -171 -58 -200 -1 -5 -9 -40 -18 -76 -8 -37
-17 -78 -20 -90 -3 -13 -7 -34 -10 -46 -11 -42 -14 -60 -20 -99 -4 -22 -13
-75 -21 -119 -8 -44 -17 -102 -20 -130 -3 -27 -7 -63 -10 -80 -6 -36 -13 -109
-22 -230 -10 -120 -10 -583 0 -715 7 -99 9 -121 23 -230 3 -25 7 -61 10 -80 6
-53 14 -103 19 -130 3 -13 7 -42 11 -64 3 -22 7 -43 9 -46 3 -4 11 -47 20
-100 1 -8 5 -26 8 -40 4 -14 14 -56 23 -95 9 -38 29 -117 46 -175 17 -58 31
-109 32 -115 3 -16 56 -178 66 -200 5 -11 23 -58 40 -105 17 -47 35 -94 39
-105 5 -11 16 -36 24 -55 43 -101 65 -148 137 -291 43 -86 90 -175 104 -198
14 -22 26 -43 26 -46 0 -4 13 -25 28 -48 15 -23 34 -54 41 -69 8 -16 18 -28
23 -28 4 0 8 -6 8 -13 0 -7 7 -22 15 -32 8 -11 36 -51 62 -90 26 -38 72 -103
102 -144 31 -40 61 -81 66 -89 6 -9 15 -21 20 -28 6 -6 28 -33 50 -60 109
-132 183 -213 332 -361 90 -90 163 -161 163 -158 0 4 21 -14 106 -93 20 -17
39 -32 42 -32 4 0 21 -13 37 -28 35 -32 214 -164 256 -189 16 -10 29 -21 29
-25 0 -4 4 -8 9 -8 5 0 44 -22 85 -50 42 -27 80 -50 86 -50 5 0 10 -4 10 -10
0 -5 4 -10 9 -10 5 0 48 -23 96 -50 48 -28 90 -50 94 -50 5 0 20 -9 34 -20 15
-12 29 -21 32 -20 3 0 26 -11 53 -24 63 -32 327 -146 338 -146 5 0 21 -6 35
-14 14 -7 37 -16 52 -20 14 -3 39 -11 54 -17 15 -6 28 -10 28 -9 0 0 27 -9 60
-20 33 -12 67 -23 75 -25 8 -3 58 -16 110 -30 102 -28 119 -32 164 -41 16 -2
32 -7 36 -9 4 -2 22 -7 41 -10 19 -3 45 -8 59 -10 14 -3 36 -8 50 -10 14 -3
41 -7 60 -10 19 -3 44 -7 56 -9 26 -5 115 -16 269 -32 92 -10 557 -11 665 -2
134 12 241 24 280 33 14 2 44 7 68 10 24 3 63 10 88 15 24 6 59 12 77 15 17 3
77 17 132 31 55 13 111 27 125 30 92 20 397 127 562 198 21 9 39 16 40 16 8
-1 347 175 419 217 123 73 203 125 211 137 5 7 8 7 8 1 0 -7 3 -7 8 0 4 6 27
24 52 40 25 16 47 32 50 35 3 3 38 29 78 58 72 52 110 82 142 113 9 8 26 22
37 30 118 82 474 443 611 618 15 19 45 57 67 85 58 72 136 181 181 251 21 33
41 62 44 65 3 3 42 66 87 140 93 156 233 431 293 573 109 262 220 603 265 813
2 11 11 52 19 91 19 88 27 131 31 160 2 12 6 34 9 50 3 15 8 46 11 68 3 23 7
50 9 61 2 11 7 49 11 84 3 36 8 79 10 95 13 103 20 263 20 490 0 286 -7 419
-30 590 -3 22 -8 58 -10 80 -3 22 -9 65 -15 95 -9 56 -20 120 -25 155 -2 11
-9 43 -15 70 -6 28 -13 59 -16 70 -4 22 -12 59 -19 90 -4 17 -40 160 -49 190
-21 75 -80 261 -96 300 -4 11 -18 47 -30 80 -12 33 -26 69 -30 80 -5 11 -28
65 -50 119 -23 54 -45 106 -50 115 -5 9 -30 61 -56 116 -26 55 -53 107 -60
115 -7 8 -13 20 -14 25 -2 16 -83 160 -92 163 -4 2 -8 8 -8 14 0 8 -160 265
-182 293 -5 6 -38 50 -74 99 -68 93 -122 163 -140 182 -5 6 -26 31 -45 54 -90
112 -350 379 -460 473 -24 21 -55 49 -69 61 -40 37 -249 198 -320 246 -36 25
-67 47 -70 50 -3 3 -17 11 -32 19 -16 8 -28 18 -28 23 0 4 -4 8 -9 8 -5 0 -57
30 -117 66 -131 81 -330 184 -479 248 -60 26 -119 52 -130 57 -197 89 -630
207 -915 250 -36 5 -76 11 -90 14 -14 2 -54 7 -90 11 -36 3 -78 8 -95 11 -36
5 -581 13 -586 8z"/>
</g>
</svg>
